# xmcd
#
# Track frame offsets:
#	150
#	20602
#	36075
#	47937
#	61387
#	78145
#	94495
#	109887
#	124227
#	143140
#
# Disc length: 2132 seconds
#
# Revision: 1
# Processed by: cddbd v1.5.2PL0 Copyright (c) Steve Scherf et al.
# Submitted via: EasyCDDAExtractor 7.0.3.1
#
DISCID=8a08520a
DTITLE=Frazier River
DYEAR=1985
DGENRE=Country
TTITLE0=Everything About You
TTITLE1=That's Why I'm Here
TTITLE2=Money Don't Make People
TTITLE3=She Got What She Deserves
TTITLE4=Last Request
TTITLE5=I Don't Want To See You Again
TTITLE6=Tangled Up In Texas
TTITLE7=Birmingham Steel
TTITLE8=Heaven Is Smiling
TTITLE9=It Won't Bring Her Back
EXTD=YEAR: 1996\n
EXTT0=
EXTT1=
EXTT2=
EXTT3=
EXTT4=
EXTT5=
EXTT6=
EXTT7=
EXTT8=
EXTT9=
PLAYORDER=
